<?xml version="1.0" encoding="UTF-8" standalone="no"?>
<!-- Created with Inkscape (http://www.inkscape.org/) -->

<svg
   width="63.263355mm"
   height="63.263355mm"
   viewBox="0 0 63.263354 63.263353"
   version="1.1"
   id="svg1"
   xml:space="preserve"
   inkscape:version="1.3.2 (091e20e, 2023-11-25, custom)"
   sodipodi:docname="icon.svg"
   inkscape:export-filename="icon.png"
   inkscape:export-xdpi="96"
   inkscape:export-ydpi="96"
   xmlns:inkscape="http://www.inkscape.org/namespaces/inkscape"
   xmlns:sodipodi="http://sodipodi.sourceforge.net/DTD/sodipodi-0.dtd"
   xmlns="http://www.w3.org/2000/svg"
   xmlns:svg="http://www.w3.org/2000/svg"><sodipodi:namedview
     id="namedview1"
     pagecolor="#000000"
     bordercolor="#000000"
     borderopacity="1"
     inkscape:showpageshadow="0"
     inkscape:pageopacity="0"
     inkscape:pagecheckerboard="true"
     inkscape:deskcolor="#505050"
     inkscape:document-units="mm"
     showgrid="true"
     inkscape:zoom="1.0449706"
     inkscape:cx="201.91956"
     inkscape:cy="377.52258"
     inkscape:window-width="2560"
     inkscape:window-height="1369"
     inkscape:window-x="1072"
     inkscape:window-y="384"
     inkscape:window-maximized="1"
     inkscape:current-layer="layer1" /><defs
     id="defs1" /><g
     inkscape:label="Livello 1"
     inkscape:groupmode="layer"
     id="layer1"
     transform="translate(123.86153,-49.390514)"><rect
       style="vector-effect:non-scaling-stroke;fill:#000000;stroke:none;stroke-width:0.264583;stroke-linecap:square;stroke-miterlimit:10;-inkscape-stroke:hairline;paint-order:markers stroke fill"
       id="rect1"
       width="63.263355"
       height="63.263355"
       x="-123.86153"
       y="49.390514"
       ry="10.739549"
       transform="translate(1.0208333e-6)" /><path
       id="path9-7"
       style="display:inline;fill:#ffffff;stroke:none;stroke-width:0.531408;stroke-linecap:round;stroke-linejoin:bevel;paint-order:markers stroke fill"
       d="m -86.220337,68.179218 -14.190433,0.290072 -0.22896,4.37335 -4.73026,4.154287 -8.17378,2.926237 3.57884,2.982435 11.447614,0.317953 20.555094,17.608468 3.859906,0.39968 29.582722,30.2874 -1.800594,2.70567 7.230854,4.7437 4.256267,8.54745 7.219583,4.12976 4.397194,8.60412 8.862304,6.45998 3.635089,-0.36243 1.9927255,-6.70155 -5.4189765,-9.24062 -10.200036,-13.06084 -11.814452,-12.15094 -3.049713,1.99077 z m -1.564891,5.420357 1.744312,4.046638 -3.38257,2.973898 -3.88498,-2.296019 0.95655,-4.296782 z m 10.871828,20.323165 0.05637,1.866944 -1.40826,0.787267 -1.473335,-1.540099 0.984924,-1.358851 z m -5.554499,-4.380315 -0.02254,1.779097 -1.332304,0.610423 -1.173961,-1.30757 0.779114,-1.226342 z"
       inkscape:transform-center-x="-29.043882"
       inkscape:transform-center-y="40.5482" /></g></svg>
