<?xml version="1.0" encoding="UTF-8" standalone="no"?>
<!-- Created with Inkscape (http://www.inkscape.org/) -->

<svg
   width="61.656139mm"
   height="53.746841mm"
   viewBox="0 0 61.656139 53.746841"
   version="1.1"
   id="svg1"
   xml:space="preserve"
   inkscape:version="1.3.2 (091e20e, 2023-11-25, custom)"
   sodipodi:docname="fried_fish.svg"
   xmlns:inkscape="http://www.inkscape.org/namespaces/inkscape"
   xmlns:sodipodi="http://sodipodi.sourceforge.net/DTD/sodipodi-0.dtd"
   xmlns="http://www.w3.org/2000/svg"
   xmlns:svg="http://www.w3.org/2000/svg"><sodipodi:namedview
     id="namedview1"
     pagecolor="#505050"
     bordercolor="#eeeeee"
     borderopacity="1"
     inkscape:showpageshadow="0"
     inkscape:pageopacity="0"
     inkscape:pagecheckerboard="0"
     inkscape:deskcolor="#505050"
     inkscape:document-units="mm"
     inkscape:zoom="1.0449705"
     inkscape:cx="347.37821"
     inkscape:cy="293.3097"
     inkscape:window-width="2560"
     inkscape:window-height="1369"
     inkscape:window-x="1072"
     inkscape:window-y="384"
     inkscape:window-maximized="1"
     inkscape:current-layer="layer1" /><defs
     id="defs1" /><g
     inkscape:label="Livello 1"
     inkscape:groupmode="layer"
     id="layer1"><path
       style="fill:#ffffff;fill-opacity:1"
       d="m 42.07697,53.490812 c 0.697315,-2.019881 1.880147,-3.927263 2.765681,-5.903532 0.839922,-1.501972 1.467829,-3.078412 1.713572,-4.789082 0.163101,-0.923822 -0.346824,-1.926789 -0.667952,-2.774485 C 44.626015,38.819786 43.670779,37.183577 41.891954,36.706991 40.076033,35.753688 38.007333,35.44111 35.99953,35.167692 32.76113,34.877553 29.474533,34.955431 26.269435,34.411019 24.0053,33.96461 21.713174,33.612692 19.620231,32.58836 16.966918,31.40955 14.293963,30.192646 11.91447,28.50988 c 0.04525,-0.872776 1.617494,-0.489404 2.296084,-0.841178 1.614174,-0.26362 3.030479,-1.218771 4.450526,-1.981792 2.491365,-1.449143 4.157575,-3.862703 6.1921,-5.84579 0.776013,-1.66361 1.753118,-3.279698 2.40712,-4.972143 0.3161,-0.941241 -0.749595,-1.401153 -1.52875,-1.37003 -1.029031,2.231849 -2.039599,4.474269 -3.559269,6.425224 -1.168711,1.572702 -2.81129,2.741756 -4.173411,4.149709 -1.608583,0.902136 -3.275533,1.650103 -5.10154,1.97794 C 11.269367,26.386735 9.54807,26.2569 7.99913,25.626176 6.204319,25.293959 4.861873,23.97609 3.440568,22.937326 2.071525,21.433256 0.97018,19.742243 0,17.95963 0.49889,16.848293 1.840123,17.89579 2.684293,18.03372 4.511012,18.621387 6.351491,19.175993 8.01368,20.158958 9.345848,19.439173 8.392743,18.745946 7.572064,18.05118 5.573994,15.985136 3.30089,14.231508 1.06655,12.433848 0.99202,11.517579 2.137021,11.090838 2.654913,10.447217 4.700062,8.931356 6.763705,7.446054 9.114541,6.435363 11.495906,5.367705 13.993415,4.56048 16.586392,4.202978 19.025548,3.729059 21.54269,4.084673 24.01599,3.973944 c 2.493956,0.410932 4.995459,0.792337 7.345877,1.764804 2.346808,0.718264 4.468624,2.024543 6.611083,3.186286 2.124897,1.650101 4.449512,3.07901 6.132846,5.218146 2.467508,2.565795 4.361374,5.637733 6.015003,8.761053 0.646397,2.037358 1.430011,4.04707 1.416465,6.217395 0.386396,3.062294 0.254347,6.220602 1.302356,9.160371 0.76411,1.029533 1.83053,1.968284 2.87652,2.758156 1.98,1.339464 3.96,2.678925 5.94,4.018385 -0.019,0.8584 -1.55018,0.448187 -2.20516,0.759032 -1.01385,0.244977 -2.00357,0.381304 -2.77398,-0.469431 -1.54079,-1.030313 -3.08159,-2.060616 -4.62239,-3.090921 -1.377843,0.434063 -0.896707,1.480039 0.15173,1.966893 0.72568,0.698739 1.79505,1.23374 2.3061,2.034727 -0.25015,0.513805 -1.60191,0.440009 -2.20676,1.069577 -0.70887,0.20051 -1.799539,1.289715 -2.2912,0.931853 0,-1.173957 0,-2.347913 0,-3.52187 -0.888172,-0.873493 -1.850628,-0.424592 -1.695818,0.833702 -0.248969,1.547459 -0.497935,3.094918 -0.746902,4.642378 -1.838062,1.166815 -3.614659,2.434726 -5.49478,3.53236 l -6e-6,-0.16368 z M 33.64057,28.87319 c 3.629923,-1.419209 7.388547,-2.474928 11.13928,-3.52213 -2.234926,-2.521871 -4.95591,-4.524994 -7.5939,-6.595949 -1.147784,-0.791028 -2.295567,-1.582058 -3.44335,-2.373088 -0.582658,0.765756 -1.777456,1.611866 -0.335969,2.111934 2.575073,1.957717 5.259449,3.775995 7.744299,5.849013 -0.807782,0.799178 -2.097218,0.707065 -2.818981,-0.15859 -2.276868,-1.778313 -4.708295,-3.453509 -7.191599,-4.8647 -0.565488,0.523037 -1.859453,1.724583 -0.403255,2.060737 2.096984,1.276831 4.069599,2.740028 6.087535,4.135313 -0.727302,0.821865 -1.943997,0.961445 -2.734989,0.141206 C 32.21184,24.41448 30.334035,23.17203 28.45623,21.92958 c -0.425555,0.662919 -1.816217,1.614438 -0.503264,2.109524 1.420519,0.989511 3.108837,1.670021 4.361234,2.853516 0.615021,0.65859 -1.329303,0.993787 -1.92468,1.15831 -1.229879,-0.04141 -2.55471,0.267 -3.54466,-0.65835 -0.97265,-0.381622 -1.565271,-1.183089 -2.11998,-2.02644 -0.891998,0.258586 -2.132143,0.902021 -0.879816,1.711936 0.904039,0.977725 1.694528,2.111764 3.051553,2.465907 1.208268,0.68359 2.669904,0.212989 3.996093,0.359407 0.915953,-0.3434 1.831907,-0.6868 2.74786,-1.0302 z M 14.0233,14.69756 c 0.688038,-0.920123 1.382473,-1.541006 2.116964,-0.288135 0.713406,0.373536 1.415676,2.100685 2.140726,1.058945 1.188823,-0.632361 0.0055,-1.599384 -0.60133,-2.158411 -1.068863,-0.729127 -1.264053,-1.457469 -0.08025,-2.184572 0.367023,-0.688292 2.134707,-1.34698 1.116051,-2.064558 C 18.163796,7.871164 17.283307,8.875898 16.704039,9.445193 15.988763,9.967727 15.219303,11.33985 14.62491,9.966971 13.954105,9.561274 13.351865,7.712875 12.627236,8.439684 c -1.140661,0.615688 -0.878699,1.324011 -0.0057,2.072686 0.409174,0.711684 1.87119,1.583086 0.693795,2.235717 -0.403729,0.695938 -1.849428,1.289446 -1.566601,2.052876 0.376061,1.131132 1.303102,1.409036 1.916481,0.261501 0.119375,-0.121634 0.238751,-0.243269 0.358126,-0.364904 z m -0.224,37.013142 C 11.872162,51.302748 10.195441,50.160221 8.491532,49.239572 7.007854,47.607008 5.068528,46.30847 4.264378,44.17777 3.453715,42.72613 2.850085,41.113744 2.531859,39.497632 2.635816,37.696525 2.323171,35.825997 2.690798,34.068826 c 0.565055,-1.8145 1.193591,-3.599491 2.310816,-5.157341 0.464325,-0.639252 0.936453,-2.061603 1.929526,-1.567705 1.018281,0.163163 2.096821,0.973232 0.858788,1.749449 -1.201001,1.303758 -1.881548,3.002102 -2.508948,4.624187 -0.264857,1.710323 -0.856609,3.416838 -0.324549,5.136435 0.06829,2.162915 1.353455,3.951451 2.177079,5.881981 1.389288,1.239535 2.453879,2.93693 4.299116,3.533539 1.441754,0.756519 2.902485,1.453603 4.554989,1.550095 1.844915,0.593135 3.689828,-0.110386 5.534745,-0.349714 1.661182,-0.873211 3.590431,-1.367232 4.760602,-2.934987 1.132852,-1.166268 2.475072,-2.183589 2.977728,-3.798183 1.051032,-1.78159 1.279384,-3.864262 1.84908,-5.82201 0.902562,0.04788 2.236701,-0.379792 1.935713,0.994282 0.119301,1.421632 -0.559779,2.806045 -0.865103,4.179904 -0.968549,1.753696 -1.483367,3.830502 -3.135971,5.09706 -1.27148,1.210897 -2.337445,2.708256 -4.077418,3.266141 -1.602932,0.885349 -3.395897,1.482543 -5.209143,1.667079 -1.984009,-0.122923 -4.054919,0.275528 -5.958548,-0.408336 z m 1.62611,-3.56564 c -1.263636,-0.130549 -2.354242,-0.809428 -3.51094,-1.27886 -0.04172,-1.201518 1.257386,-1.94101 1.814948,-2.936025 1.452905,-1.753443 2.701367,-3.687845 4.313132,-5.300675 1.332766,1.010987 2.117631,2.627648 3.227442,3.8851 0.815348,1.176396 1.90194,2.260844 2.550728,3.4937 0.310066,1.210559 -1.340578,1.130156 -2.072596,1.654591 -2.001695,0.710318 -4.232886,1.003132 -6.322714,0.482169 z M 9.18088,44.389052 C 7.613411,42.696399 6.854536,40.478818 6.37771,38.262102 7.069975,37.644521 8.226969,38.111648 9.105712,37.92932 c 2.097006,-0.05062 4.194012,-0.101245 6.291018,-0.151868 1.114735,0.641413 -0.470426,1.468155 -0.774062,2.20693 -1.410555,1.845092 -2.78163,3.720789 -4.239568,5.52915 -0.559928,0.04219 -0.803381,-0.806122 -1.20222,-1.12448 z m 15.64921,-0.13229 c -1.705992,-1.883076 -3.130619,-4.004378 -4.72106,-5.98529 0.719731,-0.878864 2.056512,-0.230705 3.063243,-0.399328 1.935942,0.03359 3.871885,0.06718 5.807827,0.100768 -0.02024,1.156975 -0.06055,2.308592 -0.772773,3.28088 -0.595956,1.348449 -1.34687,2.601066 -2.296847,3.73057 -0.550023,0.146809 -0.719634,-0.440164 -1.08039,-0.7276 z m -4.58841,-8.01524 c -0.341223,-0.899154 1.046939,-1.374277 1.768761,-0.814314 0.503133,0.278686 3.011444,0.562879 1.57839,0.836265 -1.014164,0.376522 -2.118605,0.163217 -3.176461,0.254279 L 20.32633,36.378511 Z M 6.62301,35.525512 c -0.01822,-1.480998 1.105642,-2.705431 1.582977,-4.075101 0.648416,-0.639474 0.968229,-2.04986 2.072423,-1.811881 2.155258,1.868503 3.842395,4.16065 5.60481,6.384672 -0.474423,0.529733 -1.926666,0.08165 -2.782557,0.22991 -2.159288,0 -4.318575,0 -6.477863,0 7e-5,-0.242533 1.4e-4,-0.485067 2.1e-4,-0.7276 z m 10.45863,-0.85191 c -0.828244,-0.488698 -1.427181,-1.819376 0.0035,-1.022008 0.757449,0.459956 2.500659,0.489927 1.617131,1.665655 -0.48105,1.039416 -1.14701,-0.294519 -1.620596,-0.643647 z m 30.59338,-19.00521 c -0.725941,-0.633643 -1.318308,-1.693182 -0.0043,-2.032528 0.570419,-0.353335 2.124577,-1.64874 1.793642,-0.189862 -0.315041,1.093527 -0.316919,2.304169 -0.953745,3.277359 -0.27852,-0.351656 -0.55704,-0.703313 -0.83556,-1.054969 z m -3.34435,-3.752089 c -1.218455,-0.781154 -0.946782,-1.419872 0.300609,-1.926462 0.869366,-0.412116 1.568738,-1.410089 2.605071,-1.246785 0.354964,0.85948 1.605923,1.62519 0.96186,2.589216 -0.963949,0.489013 -1.743934,1.569963 -2.83885,1.637567 -0.342897,-0.351179 -0.685793,-0.702357 -1.02869,-1.053536 z M 40.79496,8.803577 c -1.194227,-0.671589 -1.252654,-1.29268 0.04612,-1.853428 1.042367,-0.659995 1.925422,-1.615102 3.122848,-1.987868 0.581697,0.820686 1.978415,1.296303 1.81721,2.431532 -1.292142,0.775326 -2.420053,1.866911 -3.83646,2.402935 -0.38324,-0.331057 -0.76648,-0.662114 -1.14972,-0.993171 z M 36.58687,6.139259 C 35.62594,5.806255 34.938081,4.969995 36.272641,4.535157 37.581919,3.638412 38.8912,2.741671 40.20048,1.84493 40.774867,2.508006 42.398871,2.793881 42.200677,3.734593 40.995893,4.861281 39.540761,5.818962 38.24054,6.881224 37.577628,6.953174 37.134909,6.420897 36.58687,6.139259 Z M 31.80819,4.05791 C 30.323796,3.933033 30.870486,3.190129 31.73689,2.532373 33.268594,1.552935 34.671866,0.300641 36.523079,0 c 0.537261,0.04646 2.27817,0.363417 1.719047,1.1481 -1.482643,1.118341 -2.965289,2.236678 -4.447936,3.355013 -0.711888,0.04778 -1.332264,-0.196368 -1.986,-0.445203 z"
       id="path1" /></g></svg>
